# xmcd
#
# Track frame offsets:
#	183
#	14493
#	30320
#	46580
#	58813
#	74105
#	87490
#	102788
#	117585
#	134683
#
# Disc length: 1981 seconds
#
# Revision: 2
# Processed by: cddbd v1.5.2PL0 Copyright (c) Steve Scherf et al.
# Submitted via: audiograbber 1.83.01
#
DISCID=8e07bb0a
DTITLE=Georges Hamel - Prends le temps de vivre
DYEAR=1987
DGENRE=Western
TTITLE0=Prends Le Temps De Vivre(Georges Hamel-Georges Hamel)
TTITLE1=As-Tu Déja Pleuré?(Denis Champoux-Denis Champoux)
TTITLE2=Petite Mère(Georges Hamel-Chanson Traditionnelle)
TTITLE3=Volets Et Planchers(Guy Gaudette-(Jerry Wallace&Pattie Page)
TTITLE4=Au Pied Du Rosier Blanc(Georges Hamel-Chanson Traditionnelle)
TTITLE5=Dans La Paix Du Monde(Georges Hamel-Georges Hamel)
TTITLE6=Un Homme Heureux(Albert Babin-Waylou Hollyfield)
TTITLE7=Le Retour De L'hirondelle(Georges Hamel-Georges Hamel)
TTITLE8=Mes Vieux Amis(Denis Champoux-Denis Champoux)
TTITLE9=Les Amours D'un Cowboy(Jean Pierre Ferland-Daniel Mercure)
EXTD=
EXTT0=
EXTT1=
EXTT2=
EXTT3=
EXTT4=
EXTT5=
EXTT6=
EXTT7=
EXTT8=
EXTT9=
PLAYORDER=
